<?xml version="1.0" standalone="no"?>
<!DOCTYPE svg PUBLIC "-//W3C//DTD SVG 20010904//EN"
 "http://www.w3.org/TR/2001/REC-SVG-20010904/DTD/svg10.dtd">
<svg version="1.0" xmlns="http://www.w3.org/2000/svg"
 width="1280.000000pt" height="1086.000000pt" viewBox="0 0 1280.000000 1086.000000"
 preserveAspectRatio="xMidYMid meet">
<g transform="translate(0.000000,1086.000000) scale(0.100000,-0.100000)"
fill="#000000" stroke="none">
<path d="M10735 10848 c-22 -5 -78 -18 -125 -29 -113 -26 -252 -95 -348 -172
-42 -34 -1889 -1562 -4105 -3396 -3698 -3060 -4030 -3337 -4053 -3384 -58
-113 -907 -1563 -924 -1577 -10 -8 -28 -40 -41 -70 -13 -30 -267 -474 -564
-985 -298 -512 -550 -952 -559 -977 -17 -44 -17 -49 -1 -98 23 -68 77 -122
145 -145 49 -16 54 -16 98 1 26 9 940 442 2032 961 1217 579 2004 948 2034
954 27 5 62 17 77 27 22 14 2838 2342 7338 6067 568 470 861 720 894 760 27
33 65 91 84 129 37 73 83 237 83 296 0 59 -46 223 -83 296 -19 38 -57 96 -84
129 -32 39 -244 221 -603 518 -636 526 -670 552 -765 600 -168 83 -402 125
-530 95z"/>
</g>
</svg>
